<svg version="1.1" id="Layer_1" height="100%" width="100%" xmlns="http://www.w3.org/2000/svg"
	xmlns:xlink="http://www.w3.org/1999/xlink"
	viewBox="0 0 506.8 506.8" xml:space="preserve">
<path style="fill:#73BADD;" d="M320.4,383.838l-65.2-65.2l-8,8l100.8,100.8c0.8,0.8,1.6,0.8,2.8,0.8h1.2h59.2v-43.6H324h-2.8
	C321.2,384.238,320.8,384.238,320.4,383.838z"/>
<path style="fill:#ACD9EA;" d="M479.2,427.838c11.6,0,21.6-10.4,21.6-22.8c0-11.6-9.6-20.8-22-20.8h-23.6v43.6L479.2,427.838
	L479.2,427.838z"/>
<rect x="415.6" y="384.238" style="fill:#EFDC81;" width="35.6" height="43.6"/>
<path style="fill:#2884A9;" d="M16,79.438c-1.2-1.2-2.8-2-4.4-2c-1.6,0-3.2,0.4-4,1.6c-1.2,1.2-1.6,2.4-1.6,4s0.8,2.8,1.6,4
	l236.8,236.4l8-8L16,79.438z"/>
<path d="M352.4,435.838c-3.2,0-6-1.2-8.4-3.6L3.6,91.438c-2.4-2.4-3.6-5.2-3.6-8.4c0-3.2,1.2-6.4,3.6-8.4c2.4-2.4,5.2-3.6,8-3.6
	c3.2-0.4,6.4,0.8,8.8,3.2l305.2,304h153.6c15.2,0,27.6,13.2,27.6,28.8s-12.8,28.8-27.6,28.8H352.4z M12.4,79.038
	C12,79.038,12,79.038,12.4,79.038c-1.2,0-2.4,0.4-3.2,1.6c-0.8,0.8-1.2,1.6-1.2,2.8c0,1.2,0.4,2,1.2,2.8l340.4,340.8
	c0.8,0.8,1.6,1.2,2.8,1.2h126.4c10.8,0,19.6-9.6,19.6-20.8s-9.2-20.8-19.6-20.8H323.6c-1.2,0-2-0.4-2.8-1.2L14.4,80.238
	C14,79.038,12.8,79.038,12.4,79.038z"/>
<path d="M244,331.038c-1.2,0-2-0.4-2.8-1.2c-1.6-1.6-1.6-4,0-5.6l11.2-11.2c1.6-1.6,4-1.6,5.6,0s1.6,4,0,5.6l-11.2,11.2
	C246,330.638,244.8,331.038,244,331.038z"/>
<path d="M453.2,431.838c-2.4,0-4-1.6-4-4v-43.6c0-2.4,1.6-4,4-4s4,1.6,4,4v43.6C457.2,429.838,455.6,431.838,453.2,431.838z"/>
<path d="M413.6,431.838c-2.4,0-4-1.6-4-4v-43.6c0-2.4,1.6-4,4-4s4,1.6,4,4v43.6C417.6,429.838,416,431.838,413.6,431.838z"/>
</svg>