<?xml version="1.0" encoding="utf-8"?><!-- Uploaded to: SVG Repo, www.svgrepo.com, Generator: SVG Repo Mixer Tools -->
<svg fill="#000000" width="800px" height="800px" viewBox="0 0 24 24" id="tyre" data-name="Flat Color" xmlns="http://www.w3.org/2000/svg" class="icon flat-color"><rect id="primary" x="7" y="2" width="10" height="20" rx="3" style="fill: rgb(0, 0, 0);"></rect><path id="secondary" d="M17,11.47v2.06L14.76,13A1,1,0,1,1,15.24,11ZM15.24,6A1,1,0,0,0,14.76,8L17,8.53V6.47Zm0,9.5a1,1,0,0,0-.48,1.94L17,18V16ZM10,11.76A1,1,0,0,0,8.76,11L7,11.47v2.06L9.24,13A1,1,0,0,0,10,11.76Zm0-5A1,1,0,0,0,8.76,6L7,6.47V8.53L9.24,8A1,1,0,0,0,10,6.76Zm0,9.5a1,1,0,0,0-1.21-.73L7,16V18l2.24-.56A1,1,0,0,0,10,16.26Z" style="fill: rgb(44, 169, 188);"></path></svg>